<mxfile host="app.diagrams.net" agent="Mozilla/5.0 (Windows NT 10.0; Win64; x64; rv:141.0) Gecko/20100101 Firefox/141.0" version="28.0.7">
  <diagram name="Page-1" id="3FkxMmLRZrz4qnitaT7h">
    <mxGraphModel dx="469" dy="267" grid="1" gridSize="10" guides="1" tooltips="1" connect="1" arrows="1" fold="1" page="1" pageScale="1" pageWidth="850" pageHeight="1100" math="0" shadow="0">
      <root>
        <mxCell id="0" />
        <mxCell id="1" parent="0" />
        <mxCell id="6xHJKnRAwIOQYQ1JPEtI-2" value="I²C Device 1" style="rounded=0;whiteSpace=wrap;html=1;" vertex="1" parent="1">
          <mxGeometry x="440" y="430" width="90" height="60" as="geometry" />
        </mxCell>
        <mxCell id="6xHJKnRAwIOQYQ1JPEtI-3" value="SoC" style="rounded=0;whiteSpace=wrap;html=1;" vertex="1" parent="1">
          <mxGeometry x="220" y="350" width="205" height="240" as="geometry" />
        </mxCell>
        <mxCell id="6xHJKnRAwIOQYQ1JPEtI-14" value="SCL" style="text;html=1;align=center;verticalAlign=middle;resizable=0;points=[];autosize=1;strokeColor=none;fillColor=none;" vertex="1" parent="1">
          <mxGeometry x="425" y="360" width="50" height="30" as="geometry" />
        </mxCell>
        <mxCell id="6xHJKnRAwIOQYQ1JPEtI-17" value="I²C Device 2" style="rounded=0;whiteSpace=wrap;html=1;" vertex="1" parent="1">
          <mxGeometry x="540" y="430" width="90" height="60" as="geometry" />
        </mxCell>
        <mxCell id="6xHJKnRAwIOQYQ1JPEtI-19" value="" style="endArrow=none;html=1;rounded=0;exitX=1;exitY=0.25;exitDx=0;exitDy=0;" edge="1" parent="1" source="6xHJKnRAwIOQYQ1JPEtI-1">
          <mxGeometry width="50" height="50" relative="1" as="geometry">
            <mxPoint x="560" y="410" as="sourcePoint" />
            <mxPoint x="640" y="380" as="targetPoint" />
            <Array as="points" />
          </mxGeometry>
        </mxCell>
        <mxCell id="6xHJKnRAwIOQYQ1JPEtI-20" value="SDA" style="text;html=1;align=center;verticalAlign=middle;resizable=0;points=[];autosize=1;strokeColor=none;fillColor=none;" vertex="1" parent="1">
          <mxGeometry x="425" y="390" width="50" height="30" as="geometry" />
        </mxCell>
        <mxCell id="6xHJKnRAwIOQYQ1JPEtI-21" value="" style="endArrow=oval;html=1;rounded=0;exitX=0.5;exitY=0;exitDx=0;exitDy=0;strokeWidth=1;endFill=1;" edge="1" parent="1" source="6xHJKnRAwIOQYQ1JPEtI-2">
          <mxGeometry width="50" height="50" relative="1" as="geometry">
            <mxPoint x="410" y="460" as="sourcePoint" />
            <mxPoint x="485" y="410" as="targetPoint" />
          </mxGeometry>
        </mxCell>
        <mxCell id="6xHJKnRAwIOQYQ1JPEtI-23" value="" style="endArrow=oval;html=1;rounded=0;exitX=0.722;exitY=-0.003;exitDx=0;exitDy=0;exitPerimeter=0;strokeWidth=1;endFill=1;" edge="1" parent="1" source="6xHJKnRAwIOQYQ1JPEtI-2">
          <mxGeometry width="50" height="50" relative="1" as="geometry">
            <mxPoint x="505" y="420" as="sourcePoint" />
            <mxPoint x="505" y="380" as="targetPoint" />
          </mxGeometry>
        </mxCell>
        <mxCell id="6xHJKnRAwIOQYQ1JPEtI-24" value="" style="endArrow=oval;html=1;rounded=0;exitX=0.5;exitY=0;exitDx=0;exitDy=0;strokeWidth=1;endFill=1;" edge="1" parent="1">
          <mxGeometry width="50" height="50" relative="1" as="geometry">
            <mxPoint x="569.6" y="430" as="sourcePoint" />
            <mxPoint x="569.6" y="410" as="targetPoint" />
          </mxGeometry>
        </mxCell>
        <mxCell id="6xHJKnRAwIOQYQ1JPEtI-25" value="" style="endArrow=oval;html=1;rounded=0;exitX=0.722;exitY=-0.003;exitDx=0;exitDy=0;exitPerimeter=0;strokeWidth=1;endFill=1;" edge="1" parent="1">
          <mxGeometry width="50" height="50" relative="1" as="geometry">
            <mxPoint x="589.6" y="430" as="sourcePoint" />
            <mxPoint x="590" y="380" as="targetPoint" />
          </mxGeometry>
        </mxCell>
        <mxCell id="6xHJKnRAwIOQYQ1JPEtI-1" value="I²C Bus Controller" style="rounded=0;whiteSpace=wrap;html=1;" vertex="1" parent="1">
          <mxGeometry x="290" y="365" width="120" height="60" as="geometry" />
        </mxCell>
        <mxCell id="6xHJKnRAwIOQYQ1JPEtI-10" value="" style="endArrow=none;html=1;rounded=0;exitX=1;exitY=0.75;exitDx=0;exitDy=0;" edge="1" parent="1" source="6xHJKnRAwIOQYQ1JPEtI-1">
          <mxGeometry width="50" height="50" relative="1" as="geometry">
            <mxPoint x="425.24" y="540.54" as="sourcePoint" />
            <mxPoint x="640" y="410" as="targetPoint" />
            <Array as="points" />
          </mxGeometry>
        </mxCell>
      </root>
    </mxGraphModel>
  </diagram>
</mxfile>
